%TF.GenerationSoftware,KiCad,Pcbnew,(5.1.9)-1*%
%TF.CreationDate,2021-07-03T23:42:05+08:00*%
%TF.ProjectId,Task1,5461736b-312e-46b6-9963-61645f706362,rev?*%
%TF.SameCoordinates,Original*%
%TF.FileFunction,Soldermask,Bot*%
%TF.FilePolarity,Negative*%
%FSLAX46Y46*%
G04 Gerber Fmt 4.6, Leading zero omitted, Abs format (unit mm)*
G04 Created by KiCad (PCBNEW (5.1.9)-1) date 2021-07-03 23:42:05*
%MOMM*%
%LPD*%
G01*
G04 APERTURE LIST*
%ADD10C,0.300000*%
%TA.AperFunction,Profile*%
%ADD11C,0.200000*%
%TD*%
%ADD12C,4.000000*%
%ADD13C,3.000000*%
%ADD14R,3.000000X3.000000*%
G04 APERTURE END LIST*
D10*
X80157142Y-135992857D02*
X80371428Y-136064285D01*
X80442857Y-136135714D01*
X80514285Y-136278571D01*
X80514285Y-136492857D01*
X80442857Y-136635714D01*
X80371428Y-136707142D01*
X80228571Y-136778571D01*
X79657142Y-136778571D01*
X79657142Y-135278571D01*
X80157142Y-135278571D01*
X80300000Y-135350000D01*
X80371428Y-135421428D01*
X80442857Y-135564285D01*
X80442857Y-135707142D01*
X80371428Y-135850000D01*
X80300000Y-135921428D01*
X80157142Y-135992857D01*
X79657142Y-135992857D01*
X81371428Y-136778571D02*
X81228571Y-136707142D01*
X81157142Y-136635714D01*
X81085714Y-136492857D01*
X81085714Y-136064285D01*
X81157142Y-135921428D01*
X81228571Y-135850000D01*
X81371428Y-135778571D01*
X81585714Y-135778571D01*
X81728571Y-135850000D01*
X81800000Y-135921428D01*
X81871428Y-136064285D01*
X81871428Y-136492857D01*
X81800000Y-136635714D01*
X81728571Y-136707142D01*
X81585714Y-136778571D01*
X81371428Y-136778571D01*
X82300000Y-135778571D02*
X82871428Y-135778571D01*
X82514285Y-135278571D02*
X82514285Y-136564285D01*
X82585714Y-136707142D01*
X82728571Y-136778571D01*
X82871428Y-136778571D01*
X83157142Y-135778571D02*
X83728571Y-135778571D01*
X83371428Y-135278571D02*
X83371428Y-136564285D01*
X83442857Y-136707142D01*
X83585714Y-136778571D01*
X83728571Y-136778571D01*
X84442857Y-136778571D02*
X84300000Y-136707142D01*
X84228571Y-136635714D01*
X84157142Y-136492857D01*
X84157142Y-136064285D01*
X84228571Y-135921428D01*
X84300000Y-135850000D01*
X84442857Y-135778571D01*
X84657142Y-135778571D01*
X84800000Y-135850000D01*
X84871428Y-135921428D01*
X84942857Y-136064285D01*
X84942857Y-136492857D01*
X84871428Y-136635714D01*
X84800000Y-136707142D01*
X84657142Y-136778571D01*
X84442857Y-136778571D01*
X85585714Y-136778571D02*
X85585714Y-135778571D01*
X85585714Y-135921428D02*
X85657142Y-135850000D01*
X85800000Y-135778571D01*
X86014285Y-135778571D01*
X86157142Y-135850000D01*
X86228571Y-135992857D01*
X86228571Y-136778571D01*
X86228571Y-135992857D02*
X86300000Y-135850000D01*
X86442857Y-135778571D01*
X86657142Y-135778571D01*
X86800000Y-135850000D01*
X86871428Y-135992857D01*
X86871428Y-136778571D01*
X88657142Y-136707142D02*
X88871428Y-136778571D01*
X89228571Y-136778571D01*
X89371428Y-136707142D01*
X89442857Y-136635714D01*
X89514285Y-136492857D01*
X89514285Y-136350000D01*
X89442857Y-136207142D01*
X89371428Y-136135714D01*
X89228571Y-136064285D01*
X88942857Y-135992857D01*
X88800000Y-135921428D01*
X88728571Y-135850000D01*
X88657142Y-135707142D01*
X88657142Y-135564285D01*
X88728571Y-135421428D01*
X88800000Y-135350000D01*
X88942857Y-135278571D01*
X89300000Y-135278571D01*
X89514285Y-135350000D01*
X90371428Y-136778571D02*
X90228571Y-136707142D01*
X90157142Y-136635714D01*
X90085714Y-136492857D01*
X90085714Y-136064285D01*
X90157142Y-135921428D01*
X90228571Y-135850000D01*
X90371428Y-135778571D01*
X90585714Y-135778571D01*
X90728571Y-135850000D01*
X90800000Y-135921428D01*
X90871428Y-136064285D01*
X90871428Y-136492857D01*
X90800000Y-136635714D01*
X90728571Y-136707142D01*
X90585714Y-136778571D01*
X90371428Y-136778571D01*
X91728571Y-136778571D02*
X91585714Y-136707142D01*
X91514285Y-136564285D01*
X91514285Y-135278571D01*
X92942857Y-136778571D02*
X92942857Y-135278571D01*
X92942857Y-136707142D02*
X92800000Y-136778571D01*
X92514285Y-136778571D01*
X92371428Y-136707142D01*
X92300000Y-136635714D01*
X92228571Y-136492857D01*
X92228571Y-136064285D01*
X92300000Y-135921428D01*
X92371428Y-135850000D01*
X92514285Y-135778571D01*
X92800000Y-135778571D01*
X92942857Y-135850000D01*
X94228571Y-136707142D02*
X94085714Y-136778571D01*
X93800000Y-136778571D01*
X93657142Y-136707142D01*
X93585714Y-136564285D01*
X93585714Y-135992857D01*
X93657142Y-135850000D01*
X93800000Y-135778571D01*
X94085714Y-135778571D01*
X94228571Y-135850000D01*
X94300000Y-135992857D01*
X94300000Y-136135714D01*
X93585714Y-136278571D01*
X94942857Y-136778571D02*
X94942857Y-135778571D01*
X94942857Y-136064285D02*
X95014285Y-135921428D01*
X95085714Y-135850000D01*
X95228571Y-135778571D01*
X95371428Y-135778571D01*
X95871428Y-136778571D02*
X95871428Y-135778571D01*
X95871428Y-135921428D02*
X95942857Y-135850000D01*
X96085714Y-135778571D01*
X96300000Y-135778571D01*
X96442857Y-135850000D01*
X96514285Y-135992857D01*
X96514285Y-136778571D01*
X96514285Y-135992857D02*
X96585714Y-135850000D01*
X96728571Y-135778571D01*
X96942857Y-135778571D01*
X97085714Y-135850000D01*
X97157142Y-135992857D01*
X97157142Y-136778571D01*
X98514285Y-136778571D02*
X98514285Y-135992857D01*
X98442857Y-135850000D01*
X98300000Y-135778571D01*
X98014285Y-135778571D01*
X97871428Y-135850000D01*
X98514285Y-136707142D02*
X98371428Y-136778571D01*
X98014285Y-136778571D01*
X97871428Y-136707142D01*
X97800000Y-136564285D01*
X97800000Y-136421428D01*
X97871428Y-136278571D01*
X98014285Y-136207142D01*
X98371428Y-136207142D01*
X98514285Y-136135714D01*
X99157142Y-136707142D02*
X99300000Y-136778571D01*
X99585714Y-136778571D01*
X99728571Y-136707142D01*
X99800000Y-136564285D01*
X99800000Y-136492857D01*
X99728571Y-136350000D01*
X99585714Y-136278571D01*
X99371428Y-136278571D01*
X99228571Y-136207142D01*
X99157142Y-136064285D01*
X99157142Y-135992857D01*
X99228571Y-135850000D01*
X99371428Y-135778571D01*
X99585714Y-135778571D01*
X99728571Y-135850000D01*
X100442857Y-136778571D02*
X100442857Y-135278571D01*
X100585714Y-136207142D02*
X101014285Y-136778571D01*
X101014285Y-135778571D02*
X100442857Y-136350000D01*
D11*
X80000000Y-90000000D02*
X80000000Y-115000000D01*
X115000000Y-105000000D02*
X105000000Y-115000000D01*
X115000000Y-90000000D02*
X115000000Y-105000000D01*
X80000000Y-115000000D02*
X105000000Y-115000000D01*
X80000000Y-90000000D02*
X115000000Y-90000000D01*
D12*
%TO.C,H1*%
X85000000Y-95000000D03*
%TD*%
D13*
%TO.C,BT1*%
X104490000Y-102500000D03*
D14*
X84000000Y-102500000D03*
%TD*%
M02*
