%TF.GenerationSoftware,KiCad,Pcbnew,(5.1.9)-1*%
%TF.CreationDate,2021-07-03T23:42:05+08:00*%
%TF.ProjectId,Task1,5461736b-312e-46b6-9963-61645f706362,rev?*%
%TF.SameCoordinates,Original*%
%TF.FileFunction,Copper,L1,Top*%
%TF.FilePolarity,Positive*%
%FSLAX46Y46*%
G04 Gerber Fmt 4.6, Leading zero omitted, Abs format (unit mm)*
G04 Created by KiCad (PCBNEW (5.1.9)-1) date 2021-07-03 23:42:05*
%MOMM*%
%LPD*%
G01*
G04 APERTURE LIST*
%TA.AperFunction,NonConductor*%
%ADD10C,0.300000*%
%TD*%
%TA.AperFunction,Profile*%
%ADD11C,0.200000*%
%TD*%
%TA.AperFunction,SMDPad,CuDef*%
%ADD12R,1.500000X1.500000*%
%TD*%
%TA.AperFunction,ComponentPad*%
%ADD13C,3.000000*%
%TD*%
%TA.AperFunction,ComponentPad*%
%ADD14R,3.000000X3.000000*%
%TD*%
%TA.AperFunction,Conductor*%
%ADD15C,1.000000*%
%TD*%
G04 APERTURE END LIST*
D10*
X79085714Y-119278571D02*
X79942857Y-119278571D01*
X79514285Y-120778571D02*
X79514285Y-119278571D01*
X80657142Y-120778571D02*
X80514285Y-120707142D01*
X80442857Y-120635714D01*
X80371428Y-120492857D01*
X80371428Y-120064285D01*
X80442857Y-119921428D01*
X80514285Y-119850000D01*
X80657142Y-119778571D01*
X80871428Y-119778571D01*
X81014285Y-119850000D01*
X81085714Y-119921428D01*
X81157142Y-120064285D01*
X81157142Y-120492857D01*
X81085714Y-120635714D01*
X81014285Y-120707142D01*
X80871428Y-120778571D01*
X80657142Y-120778571D01*
X81800000Y-119778571D02*
X81800000Y-121278571D01*
X81800000Y-119850000D02*
X81942857Y-119778571D01*
X82228571Y-119778571D01*
X82371428Y-119850000D01*
X82442857Y-119921428D01*
X82514285Y-120064285D01*
X82514285Y-120492857D01*
X82442857Y-120635714D01*
X82371428Y-120707142D01*
X82228571Y-120778571D01*
X81942857Y-120778571D01*
X81800000Y-120707142D01*
X85014285Y-120778571D02*
X84300000Y-120778571D01*
X84300000Y-119278571D01*
X86157142Y-120778571D02*
X86157142Y-119992857D01*
X86085714Y-119850000D01*
X85942857Y-119778571D01*
X85657142Y-119778571D01*
X85514285Y-119850000D01*
X86157142Y-120707142D02*
X86014285Y-120778571D01*
X85657142Y-120778571D01*
X85514285Y-120707142D01*
X85442857Y-120564285D01*
X85442857Y-120421428D01*
X85514285Y-120278571D01*
X85657142Y-120207142D01*
X86014285Y-120207142D01*
X86157142Y-120135714D01*
X86728571Y-119778571D02*
X87085714Y-120778571D01*
X87442857Y-119778571D02*
X87085714Y-120778571D01*
X86942857Y-121135714D01*
X86871428Y-121207142D01*
X86728571Y-121278571D01*
X88585714Y-120707142D02*
X88442857Y-120778571D01*
X88157142Y-120778571D01*
X88014285Y-120707142D01*
X87942857Y-120564285D01*
X87942857Y-119992857D01*
X88014285Y-119850000D01*
X88157142Y-119778571D01*
X88442857Y-119778571D01*
X88585714Y-119850000D01*
X88657142Y-119992857D01*
X88657142Y-120135714D01*
X87942857Y-120278571D01*
X89300000Y-120778571D02*
X89300000Y-119778571D01*
X89300000Y-120064285D02*
X89371428Y-119921428D01*
X89442857Y-119850000D01*
X89585714Y-119778571D01*
X89728571Y-119778571D01*
X91800000Y-121350000D02*
X91728571Y-121278571D01*
X91585714Y-121064285D01*
X91514285Y-120921428D01*
X91442857Y-120707142D01*
X91371428Y-120350000D01*
X91371428Y-120064285D01*
X91442857Y-119707142D01*
X91514285Y-119492857D01*
X91585714Y-119350000D01*
X91728571Y-119135714D01*
X91800000Y-119064285D01*
X93085714Y-120778571D02*
X92371428Y-120778571D01*
X92371428Y-119278571D01*
X94371428Y-120778571D02*
X93514285Y-120778571D01*
X93942857Y-120778571D02*
X93942857Y-119278571D01*
X93800000Y-119492857D01*
X93657142Y-119635714D01*
X93514285Y-119707142D01*
X94871428Y-121350000D02*
X94942857Y-121278571D01*
X95085714Y-121064285D01*
X95157142Y-120921428D01*
X95228571Y-120707142D01*
X95300000Y-120350000D01*
X95300000Y-120064285D01*
X95228571Y-119707142D01*
X95157142Y-119492857D01*
X95085714Y-119350000D01*
X94942857Y-119135714D01*
X94871428Y-119064285D01*
D11*
X80000000Y-90000000D02*
X80000000Y-115000000D01*
X115000000Y-105000000D02*
X105000000Y-115000000D01*
X115000000Y-90000000D02*
X115000000Y-105000000D01*
X80000000Y-115000000D02*
X105000000Y-115000000D01*
X80000000Y-90000000D02*
X115000000Y-90000000D01*
%TO.P,R1,2*%
%TO.N,Net-(R1-Pad2)*%
%TA.AperFunction,SMDPad,CuDef*%
G36*
G01*
X86400000Y-109325001D02*
X86400000Y-108074999D01*
G75*
G02*
X86649999Y-107825000I249999J0D01*
G01*
X87275001Y-107825000D01*
G75*
G02*
X87525000Y-108074999I0J-249999D01*
G01*
X87525000Y-109325001D01*
G75*
G02*
X87275001Y-109575000I-249999J0D01*
G01*
X86649999Y-109575000D01*
G75*
G02*
X86400000Y-109325001I0J249999D01*
G01*
G37*
%TD.AperFunction*%
%TO.P,R1,1*%
%TO.N,Net-(BT1-Pad1)*%
%TA.AperFunction,SMDPad,CuDef*%
G36*
G01*
X83475000Y-109325001D02*
X83475000Y-108074999D01*
G75*
G02*
X83724999Y-107825000I249999J0D01*
G01*
X84350001Y-107825000D01*
G75*
G02*
X84600000Y-108074999I0J-249999D01*
G01*
X84600000Y-109325001D01*
G75*
G02*
X84350001Y-109575000I-249999J0D01*
G01*
X83724999Y-109575000D01*
G75*
G02*
X83475000Y-109325001I0J249999D01*
G01*
G37*
%TD.AperFunction*%
%TD*%
D12*
%TO.P,SW1,2*%
%TO.N,Net-(R1-Pad2)*%
X90600000Y-102600000D03*
%TO.P,SW1,1*%
%TO.N,Net-(D1-Pad2)*%
X98400000Y-102600000D03*
%TD*%
%TO.P,D1,2*%
%TO.N,Net-(D1-Pad2)*%
%TA.AperFunction,SMDPad,CuDef*%
G36*
G01*
X109525000Y-92725000D02*
X109525000Y-94875000D01*
G75*
G02*
X109275000Y-95125000I-250000J0D01*
G01*
X108525000Y-95125000D01*
G75*
G02*
X108275000Y-94875000I0J250000D01*
G01*
X108275000Y-92725000D01*
G75*
G02*
X108525000Y-92475000I250000J0D01*
G01*
X109275000Y-92475000D01*
G75*
G02*
X109525000Y-92725000I0J-250000D01*
G01*
G37*
%TD.AperFunction*%
%TO.P,D1,1*%
%TO.N,Net-(BT1-Pad2)*%
%TA.AperFunction,SMDPad,CuDef*%
G36*
G01*
X112325000Y-92725000D02*
X112325000Y-94875000D01*
G75*
G02*
X112075000Y-95125000I-250000J0D01*
G01*
X111325000Y-95125000D01*
G75*
G02*
X111075000Y-94875000I0J250000D01*
G01*
X111075000Y-92725000D01*
G75*
G02*
X111325000Y-92475000I250000J0D01*
G01*
X112075000Y-92475000D01*
G75*
G02*
X112325000Y-92725000I0J-250000D01*
G01*
G37*
%TD.AperFunction*%
%TD*%
D13*
%TO.P,BT1,2*%
%TO.N,Net-(BT1-Pad2)*%
X104490000Y-102500000D03*
D14*
%TO.P,BT1,1*%
%TO.N,Net-(BT1-Pad1)*%
X84000000Y-102500000D03*
%TD*%
D15*
%TO.N,Net-(BT1-Pad2)*%
X111700000Y-93800000D02*
X111700000Y-94700000D01*
X104900000Y-102500000D02*
X104490000Y-102500000D01*
X111700000Y-95290000D02*
X104490000Y-102500000D01*
X111700000Y-93800000D02*
X111700000Y-95290000D01*
%TO.N,Net-(BT1-Pad1)*%
X84000000Y-108662500D02*
X84037500Y-108700000D01*
X84000000Y-102500000D02*
X84000000Y-108662500D01*
%TO.N,Net-(D1-Pad2)*%
X108900000Y-93800000D02*
X107100000Y-93800000D01*
X107100000Y-93800000D02*
X107100000Y-94000000D01*
X107100000Y-94000000D02*
X98400000Y-102700000D01*
%TO.N,Net-(R1-Pad2)*%
X86962500Y-108700000D02*
X89000000Y-108700000D01*
X90600000Y-107100000D02*
X90600000Y-102700000D01*
X89000000Y-108700000D02*
X90600000Y-107100000D01*
%TD*%
M02*
