%TF.GenerationSoftware,KiCad,Pcbnew,(5.1.9)-1*%
%TF.CreationDate,2021-07-03T23:42:05+08:00*%
%TF.ProjectId,Task1,5461736b-312e-46b6-9963-61645f706362,rev?*%
%TF.SameCoordinates,Original*%
%TF.FileFunction,Legend,Top*%
%TF.FilePolarity,Positive*%
%FSLAX46Y46*%
G04 Gerber Fmt 4.6, Leading zero omitted, Abs format (unit mm)*
G04 Created by KiCad (PCBNEW (5.1.9)-1) date 2021-07-03 23:42:05*
%MOMM*%
%LPD*%
G01*
G04 APERTURE LIST*
%ADD10C,0.300000*%
%TA.AperFunction,Profile*%
%ADD11C,0.200000*%
%TD*%
%ADD12C,0.120000*%
%ADD13C,0.150000*%
G04 APERTURE END LIST*
D10*
X79392857Y-128678571D02*
X80250000Y-128678571D01*
X79821428Y-130178571D02*
X79821428Y-128678571D01*
X80964285Y-130178571D02*
X80821428Y-130107142D01*
X80750000Y-130035714D01*
X80678571Y-129892857D01*
X80678571Y-129464285D01*
X80750000Y-129321428D01*
X80821428Y-129250000D01*
X80964285Y-129178571D01*
X81178571Y-129178571D01*
X81321428Y-129250000D01*
X81392857Y-129321428D01*
X81464285Y-129464285D01*
X81464285Y-129892857D01*
X81392857Y-130035714D01*
X81321428Y-130107142D01*
X81178571Y-130178571D01*
X80964285Y-130178571D01*
X82107142Y-129178571D02*
X82107142Y-130678571D01*
X82107142Y-129250000D02*
X82250000Y-129178571D01*
X82535714Y-129178571D01*
X82678571Y-129250000D01*
X82750000Y-129321428D01*
X82821428Y-129464285D01*
X82821428Y-129892857D01*
X82750000Y-130035714D01*
X82678571Y-130107142D01*
X82535714Y-130178571D01*
X82250000Y-130178571D01*
X82107142Y-130107142D01*
X84535714Y-130107142D02*
X84750000Y-130178571D01*
X85107142Y-130178571D01*
X85250000Y-130107142D01*
X85321428Y-130035714D01*
X85392857Y-129892857D01*
X85392857Y-129750000D01*
X85321428Y-129607142D01*
X85250000Y-129535714D01*
X85107142Y-129464285D01*
X84821428Y-129392857D01*
X84678571Y-129321428D01*
X84607142Y-129250000D01*
X84535714Y-129107142D01*
X84535714Y-128964285D01*
X84607142Y-128821428D01*
X84678571Y-128750000D01*
X84821428Y-128678571D01*
X85178571Y-128678571D01*
X85392857Y-128750000D01*
X86035714Y-130178571D02*
X86035714Y-129178571D01*
X86035714Y-128678571D02*
X85964285Y-128750000D01*
X86035714Y-128821428D01*
X86107142Y-128750000D01*
X86035714Y-128678571D01*
X86035714Y-128821428D01*
X86964285Y-130178571D02*
X86821428Y-130107142D01*
X86750000Y-129964285D01*
X86750000Y-128678571D01*
X87535714Y-130178571D02*
X87535714Y-128678571D01*
X87678571Y-129607142D02*
X88107142Y-130178571D01*
X88107142Y-129178571D02*
X87535714Y-129750000D01*
X88678571Y-130107142D02*
X88821428Y-130178571D01*
X89107142Y-130178571D01*
X89250000Y-130107142D01*
X89321428Y-129964285D01*
X89321428Y-129892857D01*
X89250000Y-129750000D01*
X89107142Y-129678571D01*
X88892857Y-129678571D01*
X88750000Y-129607142D01*
X88678571Y-129464285D01*
X88678571Y-129392857D01*
X88750000Y-129250000D01*
X88892857Y-129178571D01*
X89107142Y-129178571D01*
X89250000Y-129250000D01*
X90607142Y-130107142D02*
X90464285Y-130178571D01*
X90178571Y-130178571D01*
X90035714Y-130107142D01*
X89964285Y-130035714D01*
X89892857Y-129892857D01*
X89892857Y-129464285D01*
X89964285Y-129321428D01*
X90035714Y-129250000D01*
X90178571Y-129178571D01*
X90464285Y-129178571D01*
X90607142Y-129250000D01*
X91250000Y-130178571D02*
X91250000Y-129178571D01*
X91250000Y-129464285D02*
X91321428Y-129321428D01*
X91392857Y-129250000D01*
X91535714Y-129178571D01*
X91678571Y-129178571D01*
X92750000Y-130107142D02*
X92607142Y-130178571D01*
X92321428Y-130178571D01*
X92178571Y-130107142D01*
X92107142Y-129964285D01*
X92107142Y-129392857D01*
X92178571Y-129250000D01*
X92321428Y-129178571D01*
X92607142Y-129178571D01*
X92750000Y-129250000D01*
X92821428Y-129392857D01*
X92821428Y-129535714D01*
X92107142Y-129678571D01*
X94035714Y-130107142D02*
X93892857Y-130178571D01*
X93607142Y-130178571D01*
X93464285Y-130107142D01*
X93392857Y-129964285D01*
X93392857Y-129392857D01*
X93464285Y-129250000D01*
X93607142Y-129178571D01*
X93892857Y-129178571D01*
X94035714Y-129250000D01*
X94107142Y-129392857D01*
X94107142Y-129535714D01*
X93392857Y-129678571D01*
X94750000Y-129178571D02*
X94750000Y-130178571D01*
X94750000Y-129321428D02*
X94821428Y-129250000D01*
X94964285Y-129178571D01*
X95178571Y-129178571D01*
X95321428Y-129250000D01*
X95392857Y-129392857D01*
X95392857Y-130178571D01*
D11*
X80000000Y-90000000D02*
X80000000Y-115000000D01*
X115000000Y-105000000D02*
X105000000Y-115000000D01*
X115000000Y-90000000D02*
X115000000Y-105000000D01*
X80000000Y-115000000D02*
X105000000Y-115000000D01*
X80000000Y-90000000D02*
X115000000Y-90000000D01*
D12*
%TO.C,R1*%
X84772936Y-109610000D02*
X86227064Y-109610000D01*
X84772936Y-107790000D02*
X86227064Y-107790000D01*
%TO.C,SW1*%
X97560000Y-100750000D02*
X97560000Y-104450000D01*
X91440000Y-100750000D02*
X97560000Y-100750000D01*
X91440000Y-104450000D02*
X91440000Y-100750000D01*
X97560000Y-104450000D02*
X91440000Y-104450000D01*
%TO.C,D1*%
X112585000Y-92215000D02*
X108700000Y-92215000D01*
X112585000Y-95385000D02*
X112585000Y-92215000D01*
X108700000Y-95385000D02*
X112585000Y-95385000D01*
%TD*%
%TO.C,R1*%
D13*
X85333333Y-107332380D02*
X85000000Y-106856190D01*
X84761904Y-107332380D02*
X84761904Y-106332380D01*
X85142857Y-106332380D01*
X85238095Y-106380000D01*
X85285714Y-106427619D01*
X85333333Y-106522857D01*
X85333333Y-106665714D01*
X85285714Y-106760952D01*
X85238095Y-106808571D01*
X85142857Y-106856190D01*
X84761904Y-106856190D01*
X86285714Y-107332380D02*
X85714285Y-107332380D01*
X86000000Y-107332380D02*
X86000000Y-106332380D01*
X85904761Y-106475238D01*
X85809523Y-106570476D01*
X85714285Y-106618095D01*
%TO.C,SW1*%
X93266666Y-106104761D02*
X93409523Y-106152380D01*
X93647619Y-106152380D01*
X93742857Y-106104761D01*
X93790476Y-106057142D01*
X93838095Y-105961904D01*
X93838095Y-105866666D01*
X93790476Y-105771428D01*
X93742857Y-105723809D01*
X93647619Y-105676190D01*
X93457142Y-105628571D01*
X93361904Y-105580952D01*
X93314285Y-105533333D01*
X93266666Y-105438095D01*
X93266666Y-105342857D01*
X93314285Y-105247619D01*
X93361904Y-105200000D01*
X93457142Y-105152380D01*
X93695238Y-105152380D01*
X93838095Y-105200000D01*
X94171428Y-105152380D02*
X94409523Y-106152380D01*
X94600000Y-105438095D01*
X94790476Y-106152380D01*
X95028571Y-105152380D01*
X95933333Y-106152380D02*
X95361904Y-106152380D01*
X95647619Y-106152380D02*
X95647619Y-105152380D01*
X95552380Y-105295238D01*
X95457142Y-105390476D01*
X95361904Y-105438095D01*
%TO.C,D1*%
X107961904Y-96652380D02*
X107961904Y-95652380D01*
X108200000Y-95652380D01*
X108342857Y-95700000D01*
X108438095Y-95795238D01*
X108485714Y-95890476D01*
X108533333Y-96080952D01*
X108533333Y-96223809D01*
X108485714Y-96414285D01*
X108438095Y-96509523D01*
X108342857Y-96604761D01*
X108200000Y-96652380D01*
X107961904Y-96652380D01*
X109485714Y-96652380D02*
X108914285Y-96652380D01*
X109200000Y-96652380D02*
X109200000Y-95652380D01*
X109104761Y-95795238D01*
X109009523Y-95890476D01*
X108914285Y-95938095D01*
%TD*%
M02*
