%TF.GenerationSoftware,KiCad,Pcbnew,(5.1.9)-1*%
%TF.CreationDate,2021-07-03T23:42:05+08:00*%
%TF.ProjectId,Task1,5461736b-312e-46b6-9963-61645f706362,rev?*%
%TF.SameCoordinates,Original*%
%TF.FileFunction,Paste,Bot*%
%TF.FilePolarity,Positive*%
%FSLAX46Y46*%
G04 Gerber Fmt 4.6, Leading zero omitted, Abs format (unit mm)*
G04 Created by KiCad (PCBNEW (5.1.9)-1) date 2021-07-03 23:42:05*
%MOMM*%
%LPD*%
G01*
G04 APERTURE LIST*
%ADD10C,0.300000*%
%TA.AperFunction,Profile*%
%ADD11C,0.200000*%
%TD*%
G04 APERTURE END LIST*
D10*
X79914285Y-126992857D02*
X80128571Y-127064285D01*
X80200000Y-127135714D01*
X80271428Y-127278571D01*
X80271428Y-127492857D01*
X80200000Y-127635714D01*
X80128571Y-127707142D01*
X79985714Y-127778571D01*
X79414285Y-127778571D01*
X79414285Y-126278571D01*
X79914285Y-126278571D01*
X80057142Y-126350000D01*
X80128571Y-126421428D01*
X80200000Y-126564285D01*
X80200000Y-126707142D01*
X80128571Y-126850000D01*
X80057142Y-126921428D01*
X79914285Y-126992857D01*
X79414285Y-126992857D01*
X81557142Y-126778571D02*
X81557142Y-127778571D01*
X80914285Y-126778571D02*
X80914285Y-127564285D01*
X80985714Y-127707142D01*
X81128571Y-127778571D01*
X81342857Y-127778571D01*
X81485714Y-127707142D01*
X81557142Y-127635714D01*
X82057142Y-126778571D02*
X82628571Y-126778571D01*
X82271428Y-126278571D02*
X82271428Y-127564285D01*
X82342857Y-127707142D01*
X82485714Y-127778571D01*
X82628571Y-127778571D01*
X82914285Y-126778571D02*
X83485714Y-126778571D01*
X83128571Y-126278571D02*
X83128571Y-127564285D01*
X83200000Y-127707142D01*
X83342857Y-127778571D01*
X83485714Y-127778571D01*
X84200000Y-127778571D02*
X84057142Y-127707142D01*
X83985714Y-127635714D01*
X83914285Y-127492857D01*
X83914285Y-127064285D01*
X83985714Y-126921428D01*
X84057142Y-126850000D01*
X84200000Y-126778571D01*
X84414285Y-126778571D01*
X84557142Y-126850000D01*
X84628571Y-126921428D01*
X84700000Y-127064285D01*
X84700000Y-127492857D01*
X84628571Y-127635714D01*
X84557142Y-127707142D01*
X84414285Y-127778571D01*
X84200000Y-127778571D01*
X85342857Y-127778571D02*
X85342857Y-126778571D01*
X85342857Y-126921428D02*
X85414285Y-126850000D01*
X85557142Y-126778571D01*
X85771428Y-126778571D01*
X85914285Y-126850000D01*
X85985714Y-126992857D01*
X85985714Y-127778571D01*
X85985714Y-126992857D02*
X86057142Y-126850000D01*
X86200000Y-126778571D01*
X86414285Y-126778571D01*
X86557142Y-126850000D01*
X86628571Y-126992857D01*
X86628571Y-127778571D01*
X88485714Y-127778571D02*
X88485714Y-126278571D01*
X89057142Y-126278571D01*
X89200000Y-126350000D01*
X89271428Y-126421428D01*
X89342857Y-126564285D01*
X89342857Y-126778571D01*
X89271428Y-126921428D01*
X89200000Y-126992857D01*
X89057142Y-127064285D01*
X88485714Y-127064285D01*
X90628571Y-127778571D02*
X90628571Y-126992857D01*
X90557142Y-126850000D01*
X90414285Y-126778571D01*
X90128571Y-126778571D01*
X89985714Y-126850000D01*
X90628571Y-127707142D02*
X90485714Y-127778571D01*
X90128571Y-127778571D01*
X89985714Y-127707142D01*
X89914285Y-127564285D01*
X89914285Y-127421428D01*
X89985714Y-127278571D01*
X90128571Y-127207142D01*
X90485714Y-127207142D01*
X90628571Y-127135714D01*
X91271428Y-127707142D02*
X91414285Y-127778571D01*
X91700000Y-127778571D01*
X91842857Y-127707142D01*
X91914285Y-127564285D01*
X91914285Y-127492857D01*
X91842857Y-127350000D01*
X91700000Y-127278571D01*
X91485714Y-127278571D01*
X91342857Y-127207142D01*
X91271428Y-127064285D01*
X91271428Y-126992857D01*
X91342857Y-126850000D01*
X91485714Y-126778571D01*
X91700000Y-126778571D01*
X91842857Y-126850000D01*
X92342857Y-126778571D02*
X92914285Y-126778571D01*
X92557142Y-126278571D02*
X92557142Y-127564285D01*
X92628571Y-127707142D01*
X92771428Y-127778571D01*
X92914285Y-127778571D01*
X93985714Y-127707142D02*
X93842857Y-127778571D01*
X93557142Y-127778571D01*
X93414285Y-127707142D01*
X93342857Y-127564285D01*
X93342857Y-126992857D01*
X93414285Y-126850000D01*
X93557142Y-126778571D01*
X93842857Y-126778571D01*
X93985714Y-126850000D01*
X94057142Y-126992857D01*
X94057142Y-127135714D01*
X93342857Y-127278571D01*
D11*
X80000000Y-90000000D02*
X80000000Y-115000000D01*
X115000000Y-105000000D02*
X105000000Y-115000000D01*
X115000000Y-90000000D02*
X115000000Y-105000000D01*
X80000000Y-115000000D02*
X105000000Y-115000000D01*
X80000000Y-90000000D02*
X115000000Y-90000000D01*
M02*
