%TF.GenerationSoftware,KiCad,Pcbnew,(5.1.9)-1*%
%TF.CreationDate,2021-07-03T23:42:05+08:00*%
%TF.ProjectId,Task1,5461736b-312e-46b6-9963-61645f706362,rev?*%
%TF.SameCoordinates,Original*%
%TF.FileFunction,Paste,Top*%
%TF.FilePolarity,Positive*%
%FSLAX46Y46*%
G04 Gerber Fmt 4.6, Leading zero omitted, Abs format (unit mm)*
G04 Created by KiCad (PCBNEW (5.1.9)-1) date 2021-07-03 23:42:05*
%MOMM*%
%LPD*%
G01*
G04 APERTURE LIST*
%ADD10C,0.300000*%
%TA.AperFunction,Profile*%
%ADD11C,0.200000*%
%TD*%
%ADD12R,1.500000X1.500000*%
G04 APERTURE END LIST*
D10*
X79235714Y-124078571D02*
X80092857Y-124078571D01*
X79664285Y-125578571D02*
X79664285Y-124078571D01*
X80807142Y-125578571D02*
X80664285Y-125507142D01*
X80592857Y-125435714D01*
X80521428Y-125292857D01*
X80521428Y-124864285D01*
X80592857Y-124721428D01*
X80664285Y-124650000D01*
X80807142Y-124578571D01*
X81021428Y-124578571D01*
X81164285Y-124650000D01*
X81235714Y-124721428D01*
X81307142Y-124864285D01*
X81307142Y-125292857D01*
X81235714Y-125435714D01*
X81164285Y-125507142D01*
X81021428Y-125578571D01*
X80807142Y-125578571D01*
X81950000Y-124578571D02*
X81950000Y-126078571D01*
X81950000Y-124650000D02*
X82092857Y-124578571D01*
X82378571Y-124578571D01*
X82521428Y-124650000D01*
X82592857Y-124721428D01*
X82664285Y-124864285D01*
X82664285Y-125292857D01*
X82592857Y-125435714D01*
X82521428Y-125507142D01*
X82378571Y-125578571D01*
X82092857Y-125578571D01*
X81950000Y-125507142D01*
X84450000Y-125578571D02*
X84450000Y-124078571D01*
X85021428Y-124078571D01*
X85164285Y-124150000D01*
X85235714Y-124221428D01*
X85307142Y-124364285D01*
X85307142Y-124578571D01*
X85235714Y-124721428D01*
X85164285Y-124792857D01*
X85021428Y-124864285D01*
X84450000Y-124864285D01*
X86592857Y-125578571D02*
X86592857Y-124792857D01*
X86521428Y-124650000D01*
X86378571Y-124578571D01*
X86092857Y-124578571D01*
X85950000Y-124650000D01*
X86592857Y-125507142D02*
X86450000Y-125578571D01*
X86092857Y-125578571D01*
X85950000Y-125507142D01*
X85878571Y-125364285D01*
X85878571Y-125221428D01*
X85950000Y-125078571D01*
X86092857Y-125007142D01*
X86450000Y-125007142D01*
X86592857Y-124935714D01*
X87235714Y-125507142D02*
X87378571Y-125578571D01*
X87664285Y-125578571D01*
X87807142Y-125507142D01*
X87878571Y-125364285D01*
X87878571Y-125292857D01*
X87807142Y-125150000D01*
X87664285Y-125078571D01*
X87450000Y-125078571D01*
X87307142Y-125007142D01*
X87235714Y-124864285D01*
X87235714Y-124792857D01*
X87307142Y-124650000D01*
X87450000Y-124578571D01*
X87664285Y-124578571D01*
X87807142Y-124650000D01*
X88307142Y-124578571D02*
X88878571Y-124578571D01*
X88521428Y-124078571D02*
X88521428Y-125364285D01*
X88592857Y-125507142D01*
X88735714Y-125578571D01*
X88878571Y-125578571D01*
X89950000Y-125507142D02*
X89807142Y-125578571D01*
X89521428Y-125578571D01*
X89378571Y-125507142D01*
X89307142Y-125364285D01*
X89307142Y-124792857D01*
X89378571Y-124650000D01*
X89521428Y-124578571D01*
X89807142Y-124578571D01*
X89950000Y-124650000D01*
X90021428Y-124792857D01*
X90021428Y-124935714D01*
X89307142Y-125078571D01*
D11*
X80000000Y-90000000D02*
X80000000Y-115000000D01*
X115000000Y-105000000D02*
X105000000Y-115000000D01*
X115000000Y-90000000D02*
X115000000Y-105000000D01*
X80000000Y-115000000D02*
X105000000Y-115000000D01*
X80000000Y-90000000D02*
X115000000Y-90000000D01*
%TO.C,R1*%
G36*
G01*
X86400000Y-109325001D02*
X86400000Y-108074999D01*
G75*
G02*
X86649999Y-107825000I249999J0D01*
G01*
X87275001Y-107825000D01*
G75*
G02*
X87525000Y-108074999I0J-249999D01*
G01*
X87525000Y-109325001D01*
G75*
G02*
X87275001Y-109575000I-249999J0D01*
G01*
X86649999Y-109575000D01*
G75*
G02*
X86400000Y-109325001I0J249999D01*
G01*
G37*
G36*
G01*
X83475000Y-109325001D02*
X83475000Y-108074999D01*
G75*
G02*
X83724999Y-107825000I249999J0D01*
G01*
X84350001Y-107825000D01*
G75*
G02*
X84600000Y-108074999I0J-249999D01*
G01*
X84600000Y-109325001D01*
G75*
G02*
X84350001Y-109575000I-249999J0D01*
G01*
X83724999Y-109575000D01*
G75*
G02*
X83475000Y-109325001I0J249999D01*
G01*
G37*
%TD*%
D12*
%TO.C,SW1*%
X90600000Y-102600000D03*
X98400000Y-102600000D03*
%TD*%
%TO.C,D1*%
G36*
G01*
X109525000Y-92725000D02*
X109525000Y-94875000D01*
G75*
G02*
X109275000Y-95125000I-250000J0D01*
G01*
X108525000Y-95125000D01*
G75*
G02*
X108275000Y-94875000I0J250000D01*
G01*
X108275000Y-92725000D01*
G75*
G02*
X108525000Y-92475000I250000J0D01*
G01*
X109275000Y-92475000D01*
G75*
G02*
X109525000Y-92725000I0J-250000D01*
G01*
G37*
G36*
G01*
X112325000Y-92725000D02*
X112325000Y-94875000D01*
G75*
G02*
X112075000Y-95125000I-250000J0D01*
G01*
X111325000Y-95125000D01*
G75*
G02*
X111075000Y-94875000I0J250000D01*
G01*
X111075000Y-92725000D01*
G75*
G02*
X111325000Y-92475000I250000J0D01*
G01*
X112075000Y-92475000D01*
G75*
G02*
X112325000Y-92725000I0J-250000D01*
G01*
G37*
%TD*%
M02*
